HIERARCHY
ROOT Hips
{
	OFFSET 0.000000 88.474243 0.000000
	CHANNELS 6 Xposition Yposition Zposition Zrotation Yrotation Xrotation 
	JOINT Hips_Spine
	{
		OFFSET 0.000000 0.000000 0.000000
		CHANNELS 3 Zrotation Yrotation Xrotation
		JOINT Spine
		{
			OFFSET 0.005100 8.711998 -0.691000
			CHANNELS 3 Zrotation Yrotation Xrotation
			JOINT Spine1
			{
				OFFSET -0.009200 8.660301 -1.275000
				CHANNELS 3 Zrotation Yrotation Xrotation
				JOINT Spine2
				{
					OFFSET 0.006300 9.852501 -1.857000
					CHANNELS 3 Zrotation Yrotation Xrotation
					JOINT Spine2_Neck
					{
						OFFSET 0.000000 0.000000 0.000000
						CHANNELS 3 Zrotation Yrotation Xrotation
						JOINT Neck
						{
							OFFSET 0.016300 11.420799 -0.263300
							CHANNELS 3 Zrotation Yrotation Xrotation
							End Site #name: Head
							{
								OFFSET -0.019200 9.262405 2.362500
							}
						}
					}
					JOINT Spine2_LeftShoulder
					{
						OFFSET 0.000000 0.000000 0.000000
						CHANNELS 3 Zrotation Yrotation Xrotation
						JOINT LeftShoulder
						{
							OFFSET 5.616900 6.732201 -0.345700
							CHANNELS 3 Zrotation Yrotation Xrotation
							JOINT LeftArm
							{
								OFFSET 10.664888 -0.183372 -2.440700
								CHANNELS 3 Zrotation Yrotation Xrotation
								JOINT LeftForeArm
								{
									OFFSET 27.459126 0.000000 0.000000
									CHANNELS 3 Zrotation Yrotation Xrotation
									End Site #name: LeftHand
									{
										OFFSET 21.306858 0.000000 0.000000
									}
								}
							}
						}
					}
					JOINT Spine2_RightShoulder
					{
						OFFSET 0.000000 0.000000 0.000000
						CHANNELS 3 Zrotation Yrotation Xrotation
						JOINT RightShoulder
						{
							OFFSET -5.580300 6.737503 -0.344400
							CHANNELS 3 Zrotation Yrotation Xrotation
							JOINT RightArm
							{
								OFFSET -10.679335 -0.188484 -2.383900
								CHANNELS 3 Zrotation Yrotation Xrotation
								JOINT RightForeArm
								{
									OFFSET -27.503529 0.000000 0.000000
									CHANNELS 3 Zrotation Yrotation Xrotation
									End Site #name: RightHand
									{
										OFFSET -21.306808 0.000000 0.000000
									}
								}
							}
						}
					}
				}
			}
		}
	}
	JOINT Hips_LeftUpLeg
	{
		OFFSET 0.000000 0.000000 0.000000
		CHANNELS 3 Zrotation Yrotation Xrotation
		JOINT LeftUpLeg
		{
			OFFSET 6.857700 -6.739601 0.312100
			CHANNELS 3 Zrotation Yrotation Xrotation
			JOINT LeftLeg
			{
				OFFSET -0.367590 -34.731552 -4.572400
				CHANNELS 3 Zrotation Yrotation Xrotation
				End Site #name: LeftFoot
				{
					OFFSET 0.367590 -34.656704 -6.067400
				}
			}
		}
	}
	JOINT Hips_RightUpLeg
	{
		OFFSET 0.000000 0.000000 0.000000
		CHANNELS 3 Zrotation Yrotation Xrotation
		JOINT RightUpLeg
		{
			OFFSET -6.876100 -6.733299 0.301000
			CHANNELS 3 Zrotation Yrotation Xrotation
			JOINT RightLeg
			{
				OFFSET 0.347353 -34.795158 -4.515900
				CHANNELS 3 Zrotation Yrotation Xrotation
				End Site #name: RightFoot
				{
					OFFSET -0.347353 -34.589367 -6.070300
				}
			}
		}
	}
}
MOTION
Frames: 8
Frame Time: 0.041667
-1.048362 1.868656 0.353597 8.847458 47.498554 -16.750568 0.000000 -0.000000 0.000000 -7.857002 4.935649 -26.361482 5.824933 -8.723247 -5.914578 0.000000 0.000000 0.000000 3.899168 -0.750027 0.788590 -13.625907 -1.779006 -6.929953 14.137485 2.613245 -7.395312 -55.190892 -31.539905 7.697576 -156.428666 46.478415 -115.582439 -179.602024 -31.518425 177.083953 5.558308 3.111431 -3.996738 9.245436 5.415298 6.109420 165.780259 69.338075 39.381313 0.501375 27.838270 4.601614 0.000000 -0.000000 0.000000 40.853482 6.112177 36.285378 58.998981 27.144695 108.673968 -0.000000 -0.000000 0.000000 81.868257 8.608030 -4.246990 -14.689375 7.378777 -80.998542 
-2.607444 4.367710 0.345038 14.544571 42.532859 -16.693876 0.000000 -0.000000 0.000000 -1.348811 8.786698 -50.984911 3.761237 -6.339922 6.905876 0.000000 0.000000 0.000000 -2.047928 1.783250 2.384379 -26.702418 5.429092 -9.959316 16.222509 0.701356 -8.471646 -81.425898 -34.282895 16.283696 -155.369967 44.655497 -119.858510 175.553369 -30.443980 178.667472 6.668137 1.692659 -12.317923 19.765106 17.692715 -0.729023 -102.809815 88.555836 128.104762 -3.773217 72.742391 -1.568165 0.000000 -0.000000 0.000000 38.354714 -9.697562 39.559498 59.742444 22.366168 127.268686 -0.000000 -0.000000 0.000000 72.527949 -0.019009 -26.477048 -18.786188 3.652514 -80.729986 
-4.535722 6.786151 0.450137 14.542580 48.827252 -17.090185 0.000000 -0.000000 0.000000 2.647694 10.914118 -56.585687 2.851997 -5.164113 11.598397 0.000000 0.000000 0.000000 -3.714769 3.861676 11.396894 -33.124295 12.199009 -5.710701 15.716197 0.194869 -9.775529 -92.260440 -31.033798 16.246551 -149.924056 45.384828 -116.223510 175.803399 -25.264616 179.165975 6.938825 1.964194 -10.715162 32.424412 4.156563 -9.627452 23.458107 71.802354 -117.380208 -173.239714 55.868517 -174.821841 0.000000 -0.000000 0.000000 31.798363 -13.932390 38.339212 73.339481 25.826133 125.301352 -0.000000 -0.000000 0.000000 67.527327 6.534855 -33.893141 -20.643146 7.295012 -75.630052 
-6.686218 9.398993 0.678711 14.175475 55.776009 -16.948111 0.000000 -0.000000 0.000000 4.454700 13.469345 -57.681998 1.691609 -5.535262 10.917219 0.000000 0.000000 0.000000 -4.832969 4.042248 12.831968 -38.821238 15.566768 -1.398230 14.117497 -1.715038 -9.778355 -97.682960 -28.346105 15.213135 -148.308827 48.298624 -117.533577 176.529603 -23.575142 178.854650 6.058721 0.733152 -11.271402 35.502188 0.812589 -11.925878 35.155462 59.267581 -119.591564 -174.709923 35.381866 -176.408434 -0.000000 -0.000000 0.000000 29.198671 -17.866802 39.110957 75.499546 28.728579 122.729149 -0.000000 -0.000000 0.000000 66.994032 6.741364 -36.403571 -20.686043 7.065153 -72.793453 
-8.989122 12.129437 1.091886 13.182247 63.071435 -17.249606 0.000000 -0.000000 0.000000 6.235128 15.008501 -55.524818 0.769714 -6.305925 9.360135 0.000000 0.000000 0.000000 -5.326316 3.046568 11.811286 -45.606180 15.930555 -1.935823 12.821503 -3.079652 -9.308498 -99.221239 -26.315399 14.696915 -148.785270 50.134046 -119.837119 176.957105 -25.183524 178.608701 4.085943 -1.063163 -11.074743 38.051459 -1.330688 -14.080661 38.462030 54.813840 -125.705451 -176.505426 21.624814 -177.493974 -0.000000 -0.000000 0.000000 29.937800 -19.140263 38.234882 75.281241 29.456686 121.961384 -0.000000 -0.000000 0.000000 67.121829 6.218358 -37.831461 -21.447249 8.200547 -70.397884 
-11.397555 14.966936 1.625984 12.316155 68.345589 -17.586294 0.000000 -0.000000 0.000000 7.175713 15.102522 -52.732366 0.044263 -7.557632 7.673937 0.000000 0.000000 0.000000 -5.732369 2.032169 10.638911 -51.319634 17.084644 -2.621568 11.552123 -3.806184 -8.782794 -99.362445 -25.336653 13.887089 -151.178529 51.093157 -122.296866 177.001176 -27.052198 178.502613 2.651188 -2.526185 -10.501618 41.987390 -3.074437 -15.757751 40.229923 51.321499 -129.861780 -177.598623 20.834812 -177.439149 -0.000000 -0.000000 0.000000 31.861394 -20.357392 34.985143 74.679193 30.146467 120.969736 -0.000000 -0.000000 0.000000 67.914882 5.635063 -37.811987 -22.314673 9.149475 -68.210284 
-13.858229 17.915237 2.251608 11.314090 72.216502 -18.195250 0.000000 -0.000000 0.000000 7.649294 14.673710 -50.179483 -0.424952 -9.239251 5.968892 0.000000 0.000000 0.000000 -5.840102 0.967593 9.743628 -54.497287 19.246114 -2.314943 9.689637 -4.289271 -8.154683 -99.241662 -24.705099 13.043326 -154.446788 51.403105 -124.446413 176.903498 -27.706964 178.465724 1.173814 -3.759297 -9.536288 46.080226 -5.258402 -17.496796 42.210406 47.990505 -131.652410 -177.937232 23.136558 -177.477790 -0.000000 -0.000000 0.000000 34.901889 -21.337720 31.749676 72.991481 30.699062 119.391623 -0.000000 -0.000000 0.000000 68.668494 5.353459 -37.337176 -22.919408 10.203671 -67.361433 
-16.327629 20.849962 2.954642 10.530705 75.402801 -18.643083 0.000000 -0.000000 0.000000 7.768239 14.126666 -48.008855 -0.626229 -11.319754 3.944095 0.000000 0.000000 0.000000 -5.953639 -0.092520 8.794587 -56.711752 20.866438 -2.198529 8.073542 -4.629939 -7.600254 -99.029868 -24.327524 12.290298 -157.066532 51.679203 -126.024177 176.802626 -28.446594 178.405605 -0.121317 -4.570580 -8.617081 49.670386 -6.110337 -18.453605 43.237303 46.207231 -132.541657 -178.264743 25.553733 -177.416250 -0.000000 -0.000000 0.000000 37.585987 -22.022836 28.990579 70.303196 30.960937 117.421042 -0.000000 -0.000000 0.000000 70.236878 5.851212 -35.820642 -23.252862 11.285320 -66.022570 
